<svg xmlns="http://www.w3.org/2000/svg" version="1.1" xmlns:xlink="http://www.w3.org/1999/xlink" xmlns:svgjs="http://svgjs.dev/svgjs" width="1440" height="560" preserveAspectRatio="none" viewBox="0 0 1440 560"><g mask="url(&quot;#SvgjsMask1000&quot;)" fill="none"><rect width="1440" height="560" x="0" y="0" fill="#0e2a47"></rect><circle r="5.58" cx="1287.6699999999998" cy="194.72" filter="url(#SvgjsFilter1001)" fill="rgba(51, 121, 194, 0.58)"></circle><circle r="7.29" cx="924.03" cy="294.98" filter="url(#SvgjsFilter1001)" fill="rgba(51, 121, 194, 0.58)"></circle><circle r="6.55" cx="137.87" cy="495.73" filter="url(#SvgjsFilter1001)" fill="rgba(51, 121, 194, 0.58)"></circle><circle r="5.29" cx="160.48" cy="418.6" filter="url(#SvgjsFilter1001)" fill="rgba(51, 121, 194, 0.58)"></circle><circle r="7.66" cx="107.32" cy="74.45" filter="url(#SvgjsFilter1001)" fill="rgba(51, 121, 194, 0.58)"></circle><circle r="7.045" cx="1282.9350000000002" cy="308.89500000000004" filter="url(#SvgjsFilter1001)" fill="rgba(51, 121, 194, 0.58)"></circle><circle r="6.015" cx="1037.785" cy="363.935" filter="url(#SvgjsFilter1001)" fill="rgba(51, 121, 194, 0.58)"></circle><circle r="7.04" cx="969.26" cy="189.66" filter="url(#SvgjsFilter1001)" fill="rgba(51, 121, 194, 0.58)"></circle><circle r="9.245" cx="774.895" cy="504.675" filter="url(#SvgjsFilter1001)" fill="rgba(51, 121, 194, 0.58)"></circle><circle r="5.56" cx="520.38" cy="62.160000000000004" filter="url(#SvgjsFilter1001)" fill="rgba(51, 121, 194, 0.58)"></circle><circle r="6.325" cx="1404.105" cy="494.925" filter="url(#SvgjsFilter1001)" fill="rgba(51, 121, 194, 0.58)"></circle><circle r="5.655" cx="80.915" cy="371.10499999999996" filter="url(#SvgjsFilter1001)" fill="rgba(51, 121, 194, 0.58)"></circle><circle r="5.97" cx="1069.14" cy="29.24" filter="url(#SvgjsFilter1001)" fill="rgba(51, 121, 194, 0.58)"></circle><circle r="8.835" cx="800.955" cy="180.935" filter="url(#SvgjsFilter1001)" fill="rgba(51, 121, 194, 0.58)"></circle><circle r="5.785" cx="482.57500000000005" cy="119.41499999999999" filter="url(#SvgjsFilter1001)" fill="rgba(51, 121, 194, 0.58)"></circle><circle r="8.97" cx="1030.02" cy="59.72" filter="url(#SvgjsFilter1001)" fill="rgba(51, 121, 194, 0.58)"></circle><circle r="6.165" cx="630.0749999999999" cy="555.9749999999999" filter="url(#SvgjsFilter1001)" fill="rgba(51, 121, 194, 0.58)"></circle><circle r="8.115" cx="425.735" cy="498.555" filter="url(#SvgjsFilter1001)" fill="rgba(51, 121, 194, 0.58)"></circle><circle r="7.885" cx="105.56500000000001" cy="552.285" filter="url(#SvgjsFilter1001)" fill="rgba(51, 121, 194, 0.58)"></circle><circle r="7.14" cx="433.28999999999996" cy="417.65" filter="url(#SvgjsFilter1001)" fill="rgba(51, 121, 194, 0.58)"></circle><path d="M1083.5 129L1081.3 151.3 1070 143.9C1068.9 143.1 1066.9 143.3 1065.4 144.7 1064.8 146.4 1065.1 148.4 1066.8 149L1080.6 158.7 1079.7 176.2 1050.9 155.9C1049.2 155.3 1047.2 155.5 1046.3 156.7 1045.1 158.7 1045.4 160.7 1047.1 161.3L1079 183.6 1076.8 210.2 1053.7 190 1054.9 220.7 1032.8 205.7 1035.5 166.8C1036.1 166.5 1035.8 165.9 1035.6 165.4 1035 164.2 1033.9 163.3 1032.4 163.3 1031 163.3 1029.6 164.7 1029 166.4L1026.6 201.5 1012.5 191.3 1013.6 174.4C1013.9 173.5 1013.7 173 1013.4 172.4 1013.1 171.8 1012 170.9 1010.6 170.9 1009.1 170.9 1007.7 172.3 1007.6 173.7L1006.2 187.1 987.6 174.8C986.2 173.3 984.4 174.2 983 175.6 982.1 176.7 982.4 178.7 984.3 179.9L1002.4 192.5 990.3 198.3C988.6 199.1 988.2 201.4 988.8 202.6 989.6 204.3 991.3 204.9 993.1 204.1L1008.7 196.6 1022.8 206.9 991.6 221.8C989.9 222.6 989.3 224.3 990.1 226.1 990.6 227.2 992.6 228.4 994.3 227.6L1029 211 1051.1 226 1022.5 236.1 1049.2 250.3 1024.9 261.9 993.3 240.2C991.3 239 989.5 239.8 988.7 240.9 987.8 242.1 988 244.1 989.4 245.5L1018.6 265 1003 272.4 988.5 263C987.1 261.5 985.1 261.8 984 263.7 983.1 264.9 983.3 266.9 985.3 268.1L996 275.7 975.8 285.4C974.1 286.2 973.5 287.9 974.3 289.6S976.9 292 978.6 291.1L998.8 281.5 998 294.6C997.7 296.9 999.1 298.4 1000.5 298.4 1002.8 298.7 1004.2 297.3 1004 295.3L1005.7 278.2 1021.3 270.7 1018.1 305.6C1018.4 307.6 1019.8 309.1 1021.2 309.1 1023.5 309.4 1024.9 308 1024.7 306L1027.7 267.7 1051.9 256.1 1046.2 285.8 1072 269.9 1069.8 296.5 1035.2 313.1C1033.4 313.9 1033.1 316.2 1033.6 317.3 1034.5 319.1 1036.2 319.7 1037.9 318.8L1069.7 303.7 1068.2 321.4 1052.6 328.8C1050.9 329.7 1050.3 331.4 1051.1 333.1 1051.7 334.3 1053.6 335.4 1055.4 334.6L1067.5 328.8 1066 350.8C1065.6 353.1 1067 354.6 1069 354.3 1070.5 354.4 1072.2 353.5 1072 351.5L1074.1 329.2 1085.4 336.6C1086.5 337.5 1088.5 337.2 1089.4 336.1 1090.3 335 1090.3 333.5 1090 333 1089.8 332.4 1089.5 331.8 1088.6 331.5L1074.8 321.8 1075.7 304.4 1104.5 324.6C1106.2 325.2 1108.2 325 1109.1 323.9 1110 322.7 1110 321.3 1109.5 320.1 1109.2 319.6 1109.2 319.6 1108.3 319.3L1076.4 296.9 1078.6 270.3 1101.7 290.5 1100.5 259.9 1122.6 274.9 1119.9 313.7C1119.8 315.2 1120.7 316.9 1123 317.2 1124.4 317.3 1125.8 315.9 1126.5 314.2L1128.8 279 1142.9 289.3 1141.8 306.1C1141.2 307.8 1142.6 309.3 1144.9 309.6 1146.3 309.6 1147.7 308.2 1148.3 306.5L1149.2 293.4 1167.8 305.7C1169.2 307.2 1171 306.4 1172.4 305 1172.7 304.1 1172.7 302.7 1172.5 302.1 1172.2 301.5 1171.9 301 1171.1 300.7L1153 288 1165.1 282.2C1166.8 281.4 1167.2 279.1 1166.6 278L1166.6 278C1165.8 276.2 1164.1 275.6 1162.3 276.4L1146.8 283.9 1132.6 273.6 1163.8 258.7C1165.6 257.9 1166.2 256.2 1165.3 254.5S1162.8 252.1 1161.1 253L1126.4 269.5 1104.4 254.5 1132.9 244.4 1106.2 230.2 1130.5 218.6 1162.1 240.4C1164.1 241.6 1165.9 240.7 1166.7 239.6 1167.6 238.5 1167.4 236.5 1166 235L1137.4 215.3 1152.4 208.1 1166.9 217.6C1168.3 219 1170.3 218.8 1171.5 216.8 1172.3 215.7 1172.1 213.6 1170.7 212.2L1159.4 204.8 1179.6 195.2C1181.3 194.3 1181.9 192.6 1181.1 190.9S1178.6 188.6 1176.8 189.4L1156.6 199.1 1157.4 185.9C1157.7 185 1157.4 184.5 1157.2 183.9 1156.6 182.7 1155.8 182.4 1154.9 182.1 1152.6 181.8 1151.2 183.2 1151.4 185.2L1149.7 202.4 1134.1 209.8 1137.3 174.9C1137 174.4 1136.7 173.8 1136.5 173.2 1135.9 172.1 1135.1 171.7 1134.2 171.4 1131.9 171.1 1130.5 172.5 1130.7 174.5L1127.7 212.8 1103.5 224.4 1109.2 194.8 1083.4 210.6 1085.6 184 1120.3 167.5C1122 166.6 1122.3 164.4 1121.8 163.2 1120.9 161.5 1119.2 160.9 1117.5 161.7L1086.3 176.6 1087.2 159.1 1102.8 151.7C1104.5 150.9 1105.1 149.2 1104.3 147.4S1101.8 145.1 1100 145.9L1087.9 151.7 1089.5 129.7C1089.8 128.8 1089.5 128.3 1089.2 127.7 1088.9 127.1 1087.8 126.2 1086.4 126.2 1084.9 126.2 1083.2 127 1083.5 129ZM1100.3 207.5L1095.6 231.7 1117.4 243.3 1093.8 251.7 1094.8 276.1 1075.9 260.3 1055.1 273.1 1059.8 248.8 1038 237.3 1061 229.1 1060.6 204.5 1078.9 220.5 1100.3 207.5Z" fill="rgba(51, 121, 194, 0.58)"></path><path d="M129.2 367.9L147.8 318.2 191 298.8 186.2 345.9 144.8 379.2C144.8 379.2 144.4 379.7 144.4 379.7 143.6 380.7 143.9 382.5 144.6 383.8 145.8 385.4 148.1 385.5 149.2 383.9L185.3 354.8 183 377.6 167.2 390.7C167.2 390.7 166.9 391.2 166.9 391.2 166.1 392.2 166.4 394 167.1 395.3 168.3 396.9 170.6 397 171.7 395.5L182.7 386.8 180.8 403.6C180.6 405 182.3 407.1 183.7 407.3 185.6 407.9 187.1 405.8 187.3 404.4L189.2 387.6 197.9 398.6C199 400.2 201.3 400.3 202.5 398.8 204.1 397.6 204.2 395.3 202.6 394.1L189.6 378.4 192.4 355.9 221.5 392C222.7 393.7 225 393.8 226.2 392.2 227.8 391 227.9 388.7 226.3 387.6L193.1 346.2 197.9 299.1 236.8 327.2 245.3 380C245.6 381.7 247.1 382.9 248.9 382.6 250.7 382.3 251.8 380.7 251.5 378.9L244.1 332.5 262.7 346 265.9 365.6C266.2 367.4 267.7 368.5 269.5 368.3 271.3 368 272.4 366.4 272.1 364.6L270 351.2 284.5 361.7C285.7 363.4 287.9 362.6 289 361 290.1 359.4 289.8 357.7 288.3 356.5L274.8 346.8 288.2 344.6C290 344.3 291.1 342.8 290.8 341S289 338.1 287.2 338.4L267.5 341.5 248.8 328 295.3 320.6C297.1 320.3 298.2 318.7 297.9 316.9 297.6 315.1 296.1 314 294.3 314.3L241.6 322.8 203.2 295 246.4 275.7 294.7 294.1C296.6 294.7 298.3 293.5 299.4 291.9 300 290 298.8 288.4 297.3 287.2L253.9 270.9 274.8 261.5 293.9 269C295.8 269.6 297.5 268.4 298.6 266.9 299.2 264.9 298 263.3 297 262.5L283.8 257.8 299.2 250.7C300.5 250.1 302 248 300.8 246.3 299.6 244.7 298 243.6 296.4 244.8L281 251.8 285.8 238.7C286.4 236.7 285.2 235.1 284.2 234.3 282.8 234.1 281 234.4 280.2 235.4 280.2 235.4 279.9 236 279.9 236L272.4 255 251.4 264.4 267.8 220.9C268.4 219 267.2 217.4 266.2 216.6 264.8 216.4 263 216.7 262.3 217.7 262.3 217.7 261.9 218.2 261.9 218.2L243.3 268 200.1 287.3 204.9 240.2 246.3 207C248 205.8 248.1 203.5 246.5 202.4 245.3 200.7 243 200.6 241.9 202.2L205.8 231.4 208.1 208.5 223.8 195.5C225.5 194.3 225.6 192 224 190.9 222.8 189.2 220.5 189.1 219.4 190.7L208.4 199.3 210.3 182.5C210.5 181.1 208.8 179.1 207.4 178.9 206 178.6 204.7 179.3 204 180.3 203.6 180.8 203.2 181.4 203.4 182.3L201.5 199.1 192.9 188.1C191.7 186.4 189.4 186.3 188.3 187.9 188.3 187.9 187.9 188.4 187.9 188.4 187.1 189.5 187.4 191.2 188.1 192.5L201.2 208.3 198.9 231.1 169.7 195C168.5 193.4 166.2 193.3 165.1 194.8 165.1 194.8 164.7 195.4 164.7 195.4 163.9 196.4 164.2 198.2 164.9 199.5L198.1 240.9 193.3 287.9 155 260.2 146.5 207.5C146.2 205.7 144.6 204.5 142.8 204.8 141.1 205.1 139.9 206.7 140.2 208.5L147.2 254.6 128.5 241.1 125.3 221.4C125.1 219.6 123.5 218.5 121.7 218.8S118.8 220.6 119.1 222.4L121.2 235.8 107.8 226.1C106.2 224.9 104.4 225.2 103.3 226.8 102.2 228.3 102.5 230.1 104 231.3L117.5 241 104.1 243.2C103.2 243.3 102.3 243.4 101.6 244.5S100.9 246.4 101.1 247.3C101.4 249.1 102.9 250.2 104.7 249.9L124.4 246.8 143.1 260.3 96.6 267.7C95.7 267.9 94.8 268 94.1 269.1 93.7 269.6 93.4 271 93.6 271.9 93.9 273.7 95.4 274.8 97.2 274.5L149.9 266 188.3 293.8 145.1 313.1 95.4 294.5C94 294.3 92.2 294.6 91.4 295.6 91.4 295.6 91.1 296.1 91.1 296.1 90.5 298.1 91.6 299.7 92.7 300.5L136.1 316.8 115.2 326.2 96.1 318.7C94.7 318.5 92.9 318.8 92.1 319.8 92.1 319.8 91.8 320.3 91.8 320.3 91.1 322.2 92.3 323.9 93.4 324.6L106.5 329.4 91.1 336.5C90.8 337 89.9 337.1 89.5 337.6 88.7 338.7 88.5 340.1 89.2 341.4 90.4 343 91.9 344.1 93.6 342.9L108.9 335.9 104.2 349C103.6 351 104.7 352.6 105.8 353.4 107.7 354 109.4 352.8 110.1 351.7L117.6 332.7 138.5 323.3 122.1 366.8C121.5 368.7 122.7 370.3 123.8 371.1 126.4 370.7 128.6 369.8 129.2 367.9Z" fill="rgba(51, 121, 194, 0.58)"></path><path d="M617.7 148L610.3 169.1 601.1 159.2C600.2 158.1 598.2 157.9 596.4 158.9 595.4 160.4 595.2 162.4 596.7 163.4L607.8 176.2 602.7 192.9 579.6 166.2C578.1 165.2 576.1 165 575 165.9 573.3 167.5 573.1 169.5 574.6 170.5L600.2 199.9 591.6 225.2 574.1 200 567.8 230 550 210.1 562.1 173.1C562.7 172.9 562.6 172.3 562.4 171.7 562.2 170.4 561.3 169.3 559.9 168.9 558.5 168.6 556.8 169.6 555.8 171.1L545 204.6 533.8 191.2 539 175.2C539.5 174.4 539.4 173.8 539.2 173.2 539.1 172.5 538.2 171.4 536.8 171 535.5 170.7 533.7 171.7 533.3 173.1L528.7 185.7 513.6 169.2C512.6 167.5 510.7 167.9 509 168.9 507.8 169.8 507.6 171.8 509.2 173.4L523.7 190 510.6 192.7C508.7 193.1 507.8 195.2 508.1 196.5 508.4 198.4 510 199.4 511.8 199L528.8 195.5 540 208.9 506.1 215.8C504.3 216.2 503.3 217.7 503.6 219.6 503.9 220.9 505.5 222.5 507.4 222.1L545 214.4 562.8 234.3 532.7 237.2 555.1 257.4 528.8 262.8 503.3 234C501.7 232.4 499.8 232.8 498.7 233.7 497.5 234.6 497.3 236.6 498.3 238.3L521.9 264.2 505 267.7 493.2 255C492.2 253.3 490.2 253 488.6 254.7 487.5 255.6 487.2 257.6 488.9 259.2L497.4 269.2 475.5 273.7C473.6 274.1 472.6 275.6 473 277.5S474.9 280.3 476.8 280L498.7 275.5 494.7 288C493.9 290.2 494.9 291.9 496.3 292.3 498.4 293.2 500.1 292.2 500.4 290.2L506.2 273.9 523.2 270.5 511.6 303.5C511.4 305.6 512.4 307.3 513.8 307.7 515.9 308.5 517.7 307.5 517.9 305.5L530.1 269.1 556.4 263.7 543.7 291.1 572.5 282 564 307.2 526.3 314.9C524.5 315.3 523.6 317.4 523.8 318.7 524.2 320.6 525.7 321.6 527.6 321.2L562.1 314.1 556.4 331 539.5 334.4C537.6 334.8 536.6 336.3 537 338.2 537.2 339.5 538.9 341.1 540.8 340.7L553.9 338 547.1 359C546.2 361.1 547.2 362.9 549.2 363.1 550.6 363.5 552.5 363.1 552.8 361.1L560.2 340 569.4 349.9C570.3 351 572.3 351.3 573.4 350.4 574.5 349.5 574.9 348.1 574.8 347.5 574.7 346.9 574.5 346.2 573.8 345.7L562.7 333 567.8 316.3 590.8 342.9C592.4 343.9 594.4 344.1 595.5 343.3 596.6 342.4 597 341 596.7 339.7 596.6 339.1 596.6 339.1 595.8 338.6L570.3 309.2 578.8 284 596.4 309.1 602.6 279.1 620.4 299 608.4 336.1C608 337.4 608.4 339.3 610.5 340.2 611.9 340.6 613.7 339.6 614.7 338L625.5 304.5 636.7 317.9 631.5 334C630.5 335.5 631.5 337.2 633.6 338.1 635 338.5 636.8 337.5 637.8 335.9L641.7 323.4 656.9 339.9C657.9 341.6 659.7 341.3 661.5 340.2 662 339.5 662.4 338.1 662.2 337.5 662.1 336.9 662 336.2 661.2 335.7L646.7 319.1 659.9 316.4C661.8 316 662.6 313.9 662.4 312.6L662.4 312.6C662 310.7 660.5 309.7 658.6 310.1L641.7 313.6 630.5 300.2 664.3 293.3C666.2 292.9 667.2 291.4 666.8 289.5S664.9 286.6 663 287L625.4 294.7 607.6 274.8 637.8 271.9 615.3 251.7 641.7 246.3 667.1 275.1C668.8 276.7 670.7 276.3 671.8 275.4 672.9 274.6 673.2 272.5 672.1 270.8L649.2 244.8 665.5 241.5 677.2 254.1C678.2 255.8 680.3 256.1 681.9 254.4 683 253.6 683.2 251.5 682.2 249.8L673 239.9 695 235.4C696.9 235.1 697.9 233.5 697.5 231.7S695.6 228.8 693.7 229.2L671.8 233.6 675.7 221.1C676.2 220.3 676.1 219.7 676 219.1 675.7 217.8 675 217.3 674.2 216.8 672.1 215.9 670.3 217 670.1 219L664.2 235.2 647.3 238.6 658.8 205.6C658.7 205 658.6 204.3 658.5 203.7 658.2 202.4 657.5 201.9 656.7 201.4 654.6 200.6 652.8 201.6 652.6 203.6L640.4 240 614.1 245.4 626.8 218 597.9 227.2 606.5 201.9 644.1 194.2C646 193.8 646.9 191.7 646.6 190.4 646.2 188.6 644.7 187.6 642.8 187.9L609 194.9 614.1 178.1 631 174.7C632.9 174.3 633.9 172.8 633.5 170.9S631.6 168 629.7 168.4L616.5 171.1 623.4 150.1C623.9 149.4 623.7 148.7 623.6 148.1 623.5 147.5 622.6 146.3 621.2 146 619.8 145.6 617.9 146 617.7 148ZM615.1 228.2L604.7 250.6 623.1 267.1 598.1 269.6 593.2 293.4 578.7 273.5 555.3 280.9 565.8 258.5 547.4 242 571.7 239.7 577.3 215.7 591.2 235.7 615.1 228.2Z" fill="rgba(51, 121, 194, 0.58)"></path><path d="M1028.4 520.1L1004.3 499.2 1003.7 487.5 1011.8 494.6C1012.5 495.6 1013.7 495.3 1014.7 494.6 1015.2 493.8 1015.2 492.4 1014.4 491.9L1003.4 482 1002.5 470.5 1012.7 475.8 1017.4 489.9C1017.4 489.9 1017.6 490.3 1017.6 490.3 1018 490.9 1019.1 491.2 1020 491.1 1021 490.4 1021.5 489.6 1021.1 488.4L1017.7 478.2 1027.9 483.4 1038.4 513.4C1038.4 513.4 1038.2 514 1038.2 514 1038.7 514.7 1039.8 514.9 1040.7 514.8 1041.9 514.4 1042.5 513.1 1041.8 512.1L1032.9 485.8 1045.5 491.8 1049.6 503.6C1049.6 503.6 1049.6 503.6 1049.8 503.9 1050.2 504.6 1051 505 1051.9 504.9 1052.9 504.2 1053.7 503.2 1053.3 502L1050.5 494.2 1059.8 498.7C1060.8 499.5 1061.8 498.8 1062.2 498 1063 497 1062.6 495.8 1061.3 495.2L1052.4 490.6 1060.1 488.4C1061.1 487.7 1061.9 486.7 1061.2 485.7 1060.9 484.5 1060.1 484 1058.9 484.4L1047.1 488.4 1034.8 482.2 1061.4 473C1062.3 472.9 1062.8 471.6 1062.5 470.4 1062.1 469.7 1061.1 468.9 1059.8 469.3L1029.8 479.7 1019.6 474.5 1029.8 471.1C1031 470.7 1031.2 469.6 1030.9 468.4 1030.8 467.5 1029.4 467 1028.6 467.1L1014.6 472.1 1004 467.1 1013.7 460.7 1028.1 463.5C1029.2 463.8 1030.2 463.1 1030.4 462 1030.9 461.2 1030 459.9 1028.9 459.7L1018.3 457.6 1028 451.1 1059.3 457.6C1060.4 457.8 1061.4 457.2 1061.6 456.1 1061.8 455 1061.2 454 1060 453.7L1032.6 448 1044 440.4 1056.2 442.9C1057.3 443.1 1058.3 442.4 1058.5 441.3 1058.7 440.2 1058 439.2 1056.9 439L1048.9 437.1 1057.3 431.6C1058.3 430.9 1058.5 429.8 1057.8 428.8 1057.1 427.8 1056 427.6 1055 428.2L1046.7 433.8 1048.3 426C1048.5 424.9 1047.8 423.9 1046.7 423.7S1044.6 424.1 1044.4 425.2L1042.1 436.9 1030.4 444.7 1035.8 417.5C1036.1 416.4 1035.4 415.4 1034.3 415.2 1033.2 414.9 1032.2 415.6 1031.9 416.7L1025.8 447.8 1016.1 454.2 1018.2 443.7C1018.4 442.6 1017.8 441.6 1016.7 441.4 1015.6 441.1 1014.6 441.8 1014.3 442.9L1011.5 457.3 1002.1 463.6 1001.5 452.5 1011.2 441.1C1011.7 440.4 1011.7 438.9 1010.9 438.5 1009.9 437.7 1009 437.8 1008 438.5L1000.9 446.6 1000.2 435.5 1021.2 411.4C1022 410.4 1021.8 409.5 1021.2 408.5 1020.2 407.7 1019 408.1 1018.3 408.5L999.7 429.6 999 415.6 1006.9 406.5C1007.9 405.9 1007.5 404.6 1006.9 403.6 1006.1 403.2 1004.6 403.2 1003.9 404.2L998.7 410.1 997.8 400.1C998 399 997 398.2 995.5 398.2 994.7 398.3 993.9 399.3 994 400.2L994.6 410.4 988.5 404.9C987.5 404.1 986.2 404.4 985.8 405.2 984.8 405.9 984.9 406.8 985.3 407.4 985.6 407.8 985.6 407.8 985.8 408.1L994.9 416 995.6 429.9 974.7 411.7C974 410.7 972.8 411 971.8 411.7 971.4 412.4 971.5 413.3 971.9 414 972.2 414.3 972.2 414.3 972.2 414.3L996.1 435.8 996.8 446.9 988.7 439.8C987.7 439.1 986.8 439.2 985.8 439.8 985.4 440.6 985.2 441.7 985.6 442.4 985.8 442.7 985.8 442.7 986 443L997.4 452.8 998 463.9 988.1 459 983 445C982.7 443.8 981.4 443.3 980.5 443.4 979.5 444.1 978.7 445.1 979.4 446L982.8 456.3 972.5 451.6 962.2 421C962.1 420.1 960.7 419.5 959.8 419.7 958.8 420.3 958.1 421.3 958.4 422.5L967.3 448.8 955 442.6 951.2 431.2C950.9 430 949.5 429.4 948.5 430.1 947.6 430.2 946.9 431.2 947.2 432.4L950 440.2 940.8 435.8C940 435.3 938.8 435.7 938 436.7 937.9 437.2 938 438.1 938.4 438.8 938.4 438.8 938.7 439.1 938.9 439.4L948.1 443.9 940.3 446.6C939.5 446.7 938.9 448.1 939 449 939.2 449.3 939.2 449.3 939.2 449.3 939.9 450.3 941 450.5 941.7 450.1L953.1 446.3 965.7 452.3 939.1 461.4C938.1 462.1 937.7 462.8 938 464.1 938 464.1 938.2 464.4 938.2 464.4 938.7 465.1 939.5 465.5 940.7 465.2L971 455 981 459.9 970.8 463.4C969.8 464 969 465 969.6 466 969.3 466.2 969.5 466.6 969.5 466.6 970 467.2 971.1 467.5 972 467.4L985.9 462.4 996.2 467.6 986.8 473.8 972.4 470.9C971.3 470.7 970 471.6 969.8 472.7 969.9 473.6 970.5 474.6 971.3 475L982.2 476.9 972.5 483.3 941.5 477.1C940.4 476.9 939.4 477.6 939.1 478.7 938.9 479.8 939.6 480.8 940.7 481L967.9 486.4 956.2 494.2 944.6 491.9C943.5 491.7 942.5 492.3 942.3 493.5S942.7 495.6 943.8 495.8L951.6 497.3 943.3 502.9C942.3 503.5 942.1 504.7 942.7 505.7 943.4 506.7 944.5 506.9 945.5 506.2L953.8 500.7 952.5 508.8C952.4 509.3 952.3 509.9 952.5 510.2 952.7 510.5 953.5 511 954 511.1 955.2 511.3 956.1 510.6 956.4 509.5L958.5 497.5 970.1 489.8 964.9 517.3C964.8 517.8 964.7 518.4 964.9 518.7 965.1 519.1 965.9 519.5 966.5 519.6 967.6 519.8 968.6 519.2 968.8 518.1L974.8 486.7 984.4 480.2 982 491C981.9 491.5 982.3 492.2 982.5 492.5 982.8 492.9 983 493.2 983.5 493.3 984.6 493.5 986 492.6 985.9 491.7L989.1 477.1 998.4 470.9 999.3 482.3 989.3 493.3C988.9 494.1 988.6 495.2 989.1 495.9 989.3 496.2 989.3 496.2 989.6 496 990.3 497 991.7 497 992.5 496L999.6 487.9 1000.5 499.3 979 523.3C978.6 524 978.7 524.9 979.1 525.6 979.3 525.9 979.3 525.9 979.3 525.9 980.3 526.7 981.5 526.9 982.2 525.9L1000.9 504.8 1001.5 518.8 993.7 527.9C992.9 528.9 993 529.8 993.4 530.5 993.4 530.5 993.7 530.8 993.7 530.8 994.7 531.6 995.9 531.2 996.5 530.8L1001.9 524.4 1002.4 534.6C1002.7 534.9 1002.9 535.2 1003.1 535.6 1003.3 535.9 1004.1 536.3 1004.7 536.4 1005.9 536.1 1006.9 535.4 1006.5 534.2L1006 524 1012.1 529.6C1013.1 530.3 1014.3 530 1015 529.6 1015.7 528.6 1015.4 527.3 1014.7 526.3L1005.6 518.5 1004.6 504.7 1025.5 523C1026.5 523.8 1027.9 523.8 1028.4 523 1029.2 522 1029.4 520.9 1028.4 520.1Z" fill="rgba(51, 121, 194, 0.58)"></path><path d="M1430.7 66.8L1420.5 98.2 1412.4 102.6 1395.3 91.6 1395.6 82.2 1420.3 60.1C1420.5 59.7 1420.5 59.7 1420.7 59.4 1421.1 58.7 1421.2 57.8 1420.4 56.8 1419.4 56.2 1418.5 56.1 1417.5 56.9L1396 76.3 1396.7 62 1406 53.3C1406 53.3 1406.3 53 1406.3 53 1406.7 52.3 1406.8 51.4 1406 50.4 1405.5 49.7 1404.1 49.7 1403.1 50.5L1396.8 55.9 1397.4 45.4C1397.5 44.5 1396.7 43.5 1395.4 43.2S1393.4 44.2 1393 45.4L1392.7 55.6 1387 49.6C1386.2 48.7 1384.8 48.7 1383.8 49.5 1383.4 50.1 1383 51.4 1383.8 52.4L1392.5 61.8 1391.7 76.4 1372.2 54.9C1371.4 53.9 1370 53.9 1369.2 54.4 1368.6 55.4 1368.3 56.6 1369.1 57.6L1391.4 82 1390.9 91.6 1373.2 100.7 1365.2 95.5 1357.8 63.2C1357.6 62.1 1356.6 61.5 1355.5 61.7S1353.7 63 1354 64.1L1360.4 92.5 1348 84.5 1345.3 72.3C1345.1 71.2 1344.1 70.6 1342.6 70.6S1340.9 71.8 1341.1 72.9L1343.3 81.4 1334.2 75.6C1333.2 75 1331.9 75.5 1331.2 76.5 1330.6 77.6 1330.8 78.7 1331.8 79.3L1340.9 85.2 1332.6 87C1331.2 87 1330.5 88 1331.1 89.3 1331.3 90.4 1332.3 91.1 1333.4 90.8L1345.6 88.2 1358.1 96.2 1329.5 102.1C1328.4 102.3 1327.6 103.7 1327.8 104.8S1329.1 106.5 1330.2 106.3L1362.8 99.2 1370.8 104.4 1369.7 124.6 1361.4 128.7 1329.9 118.5C1328.7 118.2 1327.7 119 1327.1 120 1326.8 121.2 1327.5 122.2 1328.6 122.9L1356.2 131.6 1343.5 138.1 1331.3 134.1C1330.1 133.8 1329.1 134.6 1328.4 135.6 1328.3 136.5 1328.9 137.8 1330.1 138.1L1338 140.8 1328.6 145.7C1327.8 146.2 1327.5 147.4 1327.8 148.5 1328.6 149.5 1329.8 149.8 1330.6 149.3L1339.9 144.4 1337.4 152.8C1337.3 153.7 1337.9 155 1338.8 155.1 1339.8 155.7 1340.5 155.3 1341.2 154.3 1341.2 154.3 1341.4 153.9 1341.4 153.9L1345.4 141.8 1358.2 135.2 1349.4 162.9C1349.1 164.1 1349.4 165.2 1350.6 165.5 1351.8 165.9 1352.6 165.4 1353 164.7 1353.2 164.4 1353.2 164.4 1353.2 164.4L1363.3 132.4 1371.7 128.2 1388.9 139.3 1388.2 148.4 1363.7 171.1C1362.9 171.5 1362.9 173 1363.4 173.8 1364.2 174.7 1365.6 174.7 1366.6 173.9L1388.1 154.5 1387.5 168.8 1378.1 177.5C1377.1 178.3 1376.8 179.5 1377.8 180.2 1378.6 181.2 1380 181.1 1380.8 180.7L1387 174.7 1386.4 185.2C1386.7 186.3 1387.5 187.3 1388.7 187.6 1389.2 187.5 1390 187.1 1390.4 186.4 1390.7 186.1 1390.7 186.1 1390.5 185.5L1391.1 175 1397.1 181.2C1397.9 182.2 1399 181.9 1399.8 181.5 1400 181.1 1400 181.1 1400.2 180.8 1400.6 180.1 1400.7 179.2 1400.3 178.5L1391.6 169.1 1392.2 154.7 1411.7 176.3C1412.7 176.9 1413.9 177.2 1414.6 176.2 1415.1 176.1 1415.1 176.1 1415.3 175.8 1415.8 175.1 1415.5 174 1415.1 173.2L1392.3 148.6 1393 139.5 1410.9 130.1 1418.6 135.1 1425.7 167.7C1426 168.8 1427.3 169.7 1428.4 169.4S1430.4 167.9 1430.2 166.7L1423.7 138.3 1435.8 146.1 1438.8 158.5C1439 159.6 1440 160.3 1441.1 160 1442.2 159.8 1442.9 158.8 1442.7 157.7L1440.8 149.4 1449.9 155.2C1450.6 155.6 1452 155.6 1452.7 154.6 1453.3 153.6 1453 151.9 1452.3 151.5L1443.2 145.7 1451.5 143.9C1452.1 143.7 1452.6 143.6 1452.8 143.3 1453.3 142.6 1453.2 142.1 1453 141.5 1452.8 140.4 1451.8 139.7 1450.7 140L1438.2 142.4 1426.1 134.6 1454.6 128.7C1455.1 128.6 1455.4 128.3 1455.8 127.6 1456 127.3 1456.2 126.9 1456.1 126.4 1455.9 125.3 1454.5 124.4 1453.4 124.6L1421 131.4 1413.3 126.4 1414.2 106.5 1422.4 101.9 1454.2 112.3C1455.1 112.4 1456.2 112.2 1456.6 111.5 1456.8 111.1 1456.8 111.1 1456.5 110.9 1457.2 109.9 1456.6 108.6 1455.4 108.3L1427.7 99.5 1440.7 92.7 1452.8 96.7C1453.7 96.8 1454.5 96.3 1454.9 95.6 1454.9 95.6 1455.1 95.3 1455.1 95.3 1455.8 94.3 1455.2 93 1454 92.7L1445.6 90.1 1455 85.2C1455.5 85.1 1455.7 84.8 1455.9 84.4 1456.4 83.7 1456.5 82.9 1456.1 82.6 1455.6 81.3 1454.3 81 1453.2 81.3L1443.9 86.2 1446.5 78.4C1446.8 77.1 1446.3 75.8 1445 75.5 1444.1 75.4 1442.8 76 1442.7 76.9L1438.7 89 1426 95.6 1434.7 67.9C1435 66.7 1434.2 65.7 1433.2 65.1 1432.3 65 1431 65.5 1430.7 66.8ZM1394.9 96.6L1408 105 1410 106.3 1410 108.6 1409.2 123.8 1408.9 126.5 1406.9 127.5 1393.3 134.5 1391.2 135.6 1389.2 134.3 1376.1 125.8 1374.1 124.5 1374.1 122.2 1374.9 107 1375 104.7 1377.3 103.3 1390.8 96.3 1392.9 95.3 1394.9 96.6Z" fill="rgba(51, 121, 194, 0.58)"></path><path d="M1455.1 505.5L1421.9 506.2 1400.7 485.6 1429.1 477.5 1458 493.8C1458 493.8 1458.4 493.9 1458.4 493.9 1459.2 494.1 1460.1 493.5 1460.7 492.9 1461.4 491.8 1460.9 490.4 1459.8 490.1L1434.5 475.9 1448.2 472 1459.5 478.1C1459.5 478.1 1459.9 478.2 1459.9 478.2 1460.7 478.4 1461.6 477.8 1462.2 477.1 1462.9 476.1 1462.4 474.7 1461.2 474.4L1453.7 470 1463.9 467.3C1464.8 467.1 1465.5 465.6 1465.3 464.7 1465.2 463.5 1463.7 463.1 1462.8 463.3L1452.6 466.1 1457 458.5C1457.7 457.4 1457.2 456.1 1456 455.8 1455 455.1 1453.6 455.6 1453.3 456.8L1447.2 468 1433.5 471.6 1447.7 446.3C1448.4 445.2 1447.9 443.8 1446.8 443.6 1445.7 442.9 1444.3 443.4 1444 444.5L1427.7 473.4 1399.2 481.5 1406.6 452.4 1435.2 435.3C1436.2 434.7 1436.5 433.5 1435.9 432.6 1435.3 431.6 1434.2 431.3 1433.2 431.9L1407.9 447 1411.5 433 1422.1 426.6C1423.1 426 1423.4 424.9 1422.8 423.9 1422.2 422.9 1421.1 422.6 1420.1 423.2L1412.8 427.6 1415.6 416.7C1416.2 415.6 1415.3 414.6 1414.1 414.3 1413 414 1412 414.6 1411.7 415.7L1409.1 425.8 1404.8 418.5C1404.2 417.6 1403.1 417.3 1402.1 417.8S1400.8 419.6 1401.4 420.6L1407.8 431.2 1404.3 445.2 1389.2 420C1388.6 419 1387.4 418.7 1386.5 419.3 1385.5 419.9 1385.2 421 1385.8 422L1402.9 450.6 1395.7 479.3 1374.4 458.7 1373.9 426.4C1373.8 425.2 1372.8 424.5 1371.6 424.2 1370.3 424.3 1369.7 425.4 1369.4 426.5L1369.9 455.5 1359.6 445.5 1359.6 432.7C1359.5 431.4 1358.4 430.8 1357.2 430.5 1356 430.6 1355.3 431.6 1355.1 432.4L1355.4 441.1 1347.7 433.8C1347 433.3 1345.5 432.9 1344.8 433.9 1344.1 435 1343.8 436.2 1344.9 436.8L1352.6 444.1 1343.8 444.4C1342.6 444.5 1341.9 445.6 1341.7 446.3 1341.9 447.2 1342.5 448.2 1343.2 448.4 1343.2 448.4 1343.6 448.5 1343.6 448.5L1356.4 448.4 1366.7 458.4 1337.7 459C1336.4 459 1335.7 460.1 1335.5 460.9 1335.7 461.8 1336.3 462.7 1337.1 462.9 1337.1 462.9 1337.5 463 1337.5 463L1370.7 462.3 1391.9 482.9 1363.4 491 1334.5 474.7C1333.5 474 1332.1 474.5 1331.8 475.6 1331.1 476.7 1331.6 478.1 1332.8 478.3L1358.1 492.6 1344.3 496.5 1333.1 490.4C1332 489.7 1330.6 490.2 1330.3 491.3 1329.7 492.4 1330.1 493.8 1331.3 494.1L1338.9 498.4 1328.7 501.2C1327.8 501.4 1327 502.9 1327.2 503.8 1327.4 504.6 1328.1 505.2 1328.9 505.4 1329.2 505.5 1329.6 505.6 1330.1 505.3L1340.3 502.5 1335.9 510.1C1335.2 511.1 1335.7 512.5 1336.9 512.8 1336.9 512.8 1337.3 512.9 1337.3 512.9 1338.1 513.1 1339 512.5 1339.6 511.8L1345.7 500.6 1359.5 496.6 1345.3 521.9C1344.6 523 1345.1 524.4 1346.3 524.6 1346.3 524.6 1346.7 524.7 1346.7 524.7 1347.4 524.9 1348.4 524.4 1349 523.7L1365.4 494.8 1393.8 486.7 1386.6 515.4 1357.9 532.5C1356.9 533.1 1356.6 534.3 1357.2 535.2 1357.8 536.2 1359 536.5 1359.9 535.9L1385.1 521.2 1381.6 535.2 1370.9 541.6C1369.9 542.2 1369.6 543.3 1370.2 544.3S1371.9 545.6 1372.9 545L1380.2 540.6 1377.7 550.7C1377.4 551.9 1377.9 552.8 1379.1 553.1 1380.3 553.4 1381.2 552.9 1381.5 551.7L1384.1 541.6 1388.4 548.9C1388.7 549.4 1389 549.9 1389.8 550.1S1391 550 1391.5 549.7C1392.5 549.1 1392.8 547.9 1392.2 547L1385.8 536.3 1389.4 522.3 1404.4 547.6C1404.7 548 1405 548.5 1405.8 548.7 1406.2 548.8 1407.1 548.6 1407.5 548.3 1408.5 547.8 1408.8 546.6 1408.2 545.6L1391.1 517 1398.4 488.3 1419.6 508.9 1420.3 542.1C1420.5 542.9 1421 543.9 1421.8 544.1 1421.8 544.1 1422.2 544.2 1422.2 544.2 1423.5 544.1 1424.1 543 1424.3 542.3L1423.8 513.3 1434.1 523.3 1434.2 536.1C1434.3 537 1434.9 537.9 1435.7 538.1 1435.7 538.1 1436.1 538.2 1436.1 538.2 1437.3 538.1 1438 537.1 1438.2 536.3L1438 527.5 1445.6 534.8C1446 534.9 1446.3 535.4 1446.7 535.5 1447.4 535.7 1448.3 535.5 1448.9 534.8 1449.6 533.8 1449.9 532.6 1448.8 531.9L1441.2 524.6 1449.9 524.4C1451.2 524.3 1451.8 523.2 1452 522.4 1451.9 521.2 1450.9 520.5 1450.1 520.3L1437.3 520.4 1427 510.4 1456 509.8C1457.3 509.7 1458 508.7 1458.2 507.9 1457.3 506.4 1456.3 505.4 1455.1 505.5Z" fill="rgba(51, 121, 194, 0.58)"></path><path d="M723.4 484.6L712.7 475.6 720.5 472.4C721.4 472.1 722 471 721.8 469.7 721.1 468.8 720 468.2 719.1 468.9L709.2 472.6 700.5 465.9 721.2 458.3C722.1 457.6 722.7 456.5 722.4 455.7 721.8 454.3 720.7 453.8 719.8 454.4L696.9 462.9 684 452.3 702.6 447.6 686.5 437.3 702 431.3 721 446.5C721 446.9 721.4 447 721.8 447 722.6 447.2 723.4 446.9 723.9 446.2 724.5 445.5 724.2 444.2 723.6 443.3L706.3 429.6 716.6 426 724.9 432.6C725.2 433 725.6 433.1 726 433.1 726.4 433.2 727.3 432.9 727.8 432.2 728.3 431.5 728.1 430.2 727.4 429.7L721 424.2 734 419C735.2 418.8 735.4 417.6 735.2 416.4 734.9 415.5 733.8 415 732.5 415.6L719.6 420.4 720.9 412.1C721.1 410.9 720 409.9 719.3 409.8 718.1 409.6 717.2 410.2 717 411.4L715.2 422.1 704.9 425.7 708.4 404.4C708.6 403.2 707.9 402.3 706.7 402.1 705.9 402 704.6 402.6 704.4 403.7L700.6 427.4 685.1 433.4 690 415.2 673.2 423.8 675.9 407.3 698.3 398.7C699.7 398.1 699.8 396.9 699.6 396.1 699.3 395.2 698.2 394.6 696.9 394.8L676.6 402.9 678.3 392.3 688.3 388.2C689.5 388 690.1 386.9 689.5 385.5 689.3 384.7 688.1 384.1 686.8 384.7L679.1 387.5 681.3 373.7C681.5 372.5 680.8 371.6 679.6 371.4S677.5 371.9 677.4 373.1L675.1 386.9 668.7 381.8C667.6 380.8 666.4 381 665.8 381.7 664.8 382.8 665.1 384 666.2 384.6L674.4 391.6 672.7 402.3 655.9 388.2C654.7 387.6 653.5 387.9 653 388.6 652 389.6 652.2 390.9 653.3 391.5L672 406.6 669.3 423.2 656.1 409.7 655 428.6 642.2 418 646 394.3C646.2 393.2 645.1 392.2 644.3 392 643.1 391.9 642.2 392.5 642 393.7L638.5 415.4 629.9 408.4 631.7 397.7C631.8 396.5 631.2 395.6 630 395.4 629.2 395.3 627.9 395.9 627.7 397.1L626.4 405.4 615.6 396.7C614.6 395.8 613.3 396 612.7 397.1 612.2 397.8 612 399 613.1 399.6L623.8 408.6 616 411.8C615.2 412.1 614.6 413.2 614.9 414 615.1 414.9 615.8 415.4 616.2 415.5 616.6 415.5 617 415.6 617.5 415.3L627.4 411.6 636 418.3 615.4 425.9C614.5 426.5 613.9 427.7 614.1 428.5 614.4 429.4 615.1 429.9 615.9 430 616.3 430.1 616.3 430.1 616.8 429.8L639.6 421.3 652.5 431.9 633.9 436.6 650.1 446.9 634.5 452.9 615.5 437.7C614.8 437.1 613.6 436.9 612.6 438 612.1 438.7 612.3 440 613 440.9L630.2 454.6 619.9 458.2 611.6 451.6C611 450.7 609.7 450.9 608.8 452 608.2 452.7 608.4 453.9 609.1 454.8L615.6 459.9 602.6 465.1C601.3 465.3 601.1 466.5 601.3 467.8 601.7 468.2 602.4 468.8 602.8 468.8 603.2 468.9 603.6 469 604 468.6L617 463.8 615.6 472.1C615.4 473.3 616.5 474.3 617.3 474.4L617.3 474.4C618.5 474.6 619.4 473.9 619.6 472.7L621.3 462.1 631.6 458.5 628.2 479.8C628 481 628.6 481.9 629.8 482.1S631.9 481.6 632.1 480.4L635.9 456.7 651.5 450.7 646.5 469 663.3 460.3 660.6 476.9 638.2 485.5C636.9 486.1 636.7 487.2 637 488.1 637.2 489 638.4 489.5 639.6 489.3L659.9 481.7 658.2 491.9 648.3 496C647 496.2 646.4 497.3 647 498.6 647.3 499.5 648.4 500.1 649.7 499.9L657.5 496.7 655.2 510.5C655.1 511.7 655.7 512.6 656.9 512.8S659 512.3 659.2 511.1L661.4 497.3 667.9 502.4C668.2 502.9 668.6 502.9 669 503 669.8 503.1 670.3 502.8 670.7 502.4 671.7 501.4 671.5 500.1 670.4 499.6L662.2 492.6 663.9 481.9 680.7 495.9C681.1 496 681.5 496.1 681.9 496.1 682.7 496.3 683.1 495.9 683.6 495.6 684.5 494.5 684.3 493.3 683.2 492.7L664.6 477.6 667.3 461 680.5 474.4 681.5 455.6 694.4 466.1 690.6 489.8C690.4 491 691.4 492 692.2 492.1 693.4 492.3 694.3 491.7 694.5 490.5L698 469.1 706.6 475.8 704.9 486.5C704.7 487.7 705.4 488.6 706.5 488.8S708.6 488.3 708.8 487.1L710.2 478.8 720.9 487.4C721.3 487.9 721.7 488 722.1 488 722.5 488.1 723.3 487.8 723.8 487.1 724.4 486.4 724.5 485.2 723.4 484.6ZM677.1 465.4L666.3 454.3 652.6 461.4 656.7 446.3 643.8 438.1 658.6 434.1 659.5 418.8 670.2 429.8 683.9 422.7 680 437.5 692.8 446 678 449.7 677.1 465.4Z" fill="rgba(51, 121, 194, 0.58)"></path><path d="M297.9 446.7L319.7 421.8 328.8 420.9 340.2 437.8 336.3 446.3 304.8 457C304.5 457.2 304.5 457.2 304.2 457.4 303.5 457.8 303.1 458.6 303.4 459.8 304.1 460.8 304.9 461.3 306.1 460.9L333.5 451.5 327.3 464.4 315.2 468.7C315.2 468.7 314.9 469 314.9 469 314.2 469.4 313.8 470.2 314.1 471.4 314.3 472.3 315.6 472.8 316.8 472.5L324.8 470 320.1 479.5C319.6 480.3 320 481.5 321 482.2S323.3 482.1 324.1 481.1L328.5 471.9 331.3 479.6C331.6 480.8 333 481.4 334.2 481 334.8 480.6 335.6 479.6 335.3 478.4L331 466.3 337.5 453.2 346.9 480.6C347.3 481.8 348.6 482.4 349.5 482.3 350.5 481.6 351.3 480.6 350.9 479.4L339.9 448.2 344.2 439.5 364 438.1 369.4 446 363.5 478.6C363.2 479.7 363.9 480.7 365 480.9S367.1 480.5 367.3 479.3L372.6 450.7 380.9 462.9 378.5 475.2C378.3 476.3 379 477.3 380.3 477.8S382.4 477.4 382.6 476.2L384 467.6 390.1 476.5C390.7 477.5 392.2 477.5 393.2 476.8 394.2 476.2 394.4 475 393.7 474.1L387.7 465.1 396 466.7C397.3 467.3 398.3 466.6 398.3 465.1 398.5 464 397.8 463 396.7 462.8L384.5 460.5 376.2 448.2 404.8 454C405.9 454.2 407.2 453.3 407.4 452.2S407 450.1 405.8 449.9L373.1 443.6 367.7 435.6 376.7 417.5 386 417 410.9 438.8C411.9 439.5 413.1 439.2 414.1 438.5 414.9 437.5 414.5 436.3 413.8 435.3L391.8 416.4 406.1 415.4 415.8 423.9C416.8 424.6 418 424.3 419 423.6 419.4 422.8 419.4 421.4 418.4 420.6L412.2 415.1 422.8 414.3C423.7 414.1 424.4 413.1 424.7 412 424.3 410.8 423.3 410 422.4 410.2L411.9 411 417.5 404.3C417.9 403.5 417.9 402.1 417.1 401.7 416.5 400.7 415.6 400.8 414.6 401.5 414.6 401.5 414.3 401.7 414.3 401.7L405.8 411.3 391.5 412.3 410.4 390.3C411.2 389.3 411.4 388.2 410.4 387.4 409.4 386.6 408.5 386.7 407.8 387.2 407.5 387.4 407.5 387.4 407.5 387.4L385.6 412.9 376.3 413.4 364.9 396.5 369 388.4 400.5 377.1C401.4 377 402 375.7 401.9 374.8 401.5 373.6 400.2 373 399 373.4L371.5 382.8 377.7 369.9 389.8 365.6C391 365.2 391.8 364.2 391.1 363.2 390.8 362 389.4 361.5 388.6 361.6L380.5 364.6 385.2 355.2C385.4 354.1 385.1 352.9 384.1 352.1 383.5 352 382.6 352.1 381.9 352.5 381.6 352.8 381.6 352.8 381.5 353.3L376.8 362.8 373.8 354.7C373.4 353.5 372.3 353.3 371.4 353.4 371.1 353.6 371.1 353.6 370.8 353.8 370.1 354.3 369.7 355.1 369.8 356L374.1 368 367.8 380.9 358.4 353.5C357.8 352.5 356.8 351.7 355.8 352.4 355.2 352.3 355.2 352.3 354.9 352.5 354.2 353 354 354.1 354.1 355L365.3 386.5 361.2 394.6 341 396.2 335.8 388.6 342.1 355.8C342.4 354.7 341.5 353.4 340.3 353.2S337.9 353.9 337.7 355L332.5 383.6 324.4 371.7 326.5 359.2C326.7 358.1 326.1 357.1 325 356.8 323.8 356.6 322.8 357.3 322.6 358.4L321 366.7 315 357.8C314.5 357.1 313.2 356.6 312.2 357.3 311.2 357.9 310.9 359.6 311.3 360.3L317.4 369.2 309.1 367.6C308.5 367.5 307.9 367.4 307.6 367.6 307 368.1 306.8 368.6 306.7 369.2 306.5 370.3 307.2 371.3 308.3 371.5L320.8 374.2 328.8 386.1 300.3 380.3C299.7 380.2 299.4 380.4 298.7 380.9 298.4 381.1 298.1 381.3 298 381.9 297.7 383 298.6 384.3 299.8 384.5L332.2 391.1 337.4 398.7 328.7 416.6 319.3 417.7 294.2 395.6C293.4 395.1 292.3 394.9 291.6 395.4 291.3 395.6 291.3 395.6 291.5 395.9 290.5 396.6 290.5 398 291.5 398.8L313.5 417.7 298.9 418.9 289.3 410.5C288.5 410 287.6 410.1 287 410.6 287 410.6 286.6 410.8 286.6 410.8 285.6 411.5 285.6 412.9 286.7 413.7L293.3 419.3 282.8 420.2C282.3 420.1 281.9 420.3 281.6 420.5 280.9 421 280.5 421.7 280.7 422.1 280.7 423.5 281.7 424.3 282.8 424.5L293.4 423.6 287.9 429.8C287.1 430.8 287.1 432.2 288.1 433 288.9 433.4 290.3 433.4 290.8 432.6L299.3 423 313.6 422.1 294.6 444C293.9 445.1 294.2 446.3 294.9 447.3 295.7 447.7 297.1 447.7 297.9 446.7ZM342.5 433.4L333.7 420.5 332.4 418.5 333.4 416.4 340 402.7 341.4 400.3 343.7 400.2 358.9 399.1 361.2 399 362.6 400.9 371.3 413.9 372.6 415.8 371.7 418 365 431.7 364 433.8 361.4 434.1 346.2 435.2 343.8 435.4 342.5 433.4Z" fill="rgba(51, 121, 194, 0.58)"></path><path d="M87.5 516.8L111.6 505.7 133.7 514 115.4 529 89 526.2C89 526.2 88.7 526.3 88.7 526.3 88.1 526.4 87.5 527.1 87.3 527.8 87.2 528.8 88 529.7 88.9 529.5L112 531.8 103.2 539.2 93 538.2C93 538.2 92.6 538.3 92.6 538.3 92 538.4 91.5 539.1 91.3 539.8 91.1 540.8 91.9 541.7 92.8 541.5L99.8 542.3 93.2 547.6C92.6 548 92.5 549.3 92.9 549.9 93.4 550.8 94.7 550.6 95.3 550.2L101.8 544.9 101 551.8C100.9 552.8 101.7 553.7 102.6 553.5 103.6 553.7 104.5 552.9 104.3 551.9L105.2 541.7 114.1 534.7 111.8 557.8C111.6 558.8 112.4 559.7 113.3 559.5 114.3 559.7 115.2 558.9 115 557.9L117.8 531.5 136.1 516.5 140 540.2 124.4 561.9C123.9 562.6 124.1 563.6 124.8 564.1 125.5 564.6 126.5 564.5 127 563.7L140.7 544.6 142.6 556 136.8 564.1C136.3 564.8 136.4 565.8 137.2 566.3 137.9 566.8 138.8 566.7 139.4 565.9L143.3 560.4 144.8 569.2C144.6 570.2 145.7 570.7 146.6 570.6 147.6 570.4 148.1 569.7 147.9 568.7L146.6 560.5 152.1 564.5C152.8 565 153.8 564.8 154.3 564.1S154.7 562.4 154 561.9L145.9 556.1 144 544.7 163.1 558.4C163.8 558.9 164.8 558.8 165.3 558.1 165.8 557.3 165.7 556.4 165 555.8L143.2 540.3 139.4 516.9 161.5 525.3 172.2 548.8C172.7 549.7 173.7 549.9 174.6 549.7 175.5 549.2 175.7 548.2 175.5 547.3L165.9 526.2 176.6 530.2 180.8 539.6C181.2 540.5 182.2 540.7 183.2 540.5 184.1 540 184.2 539 184.1 538.4L181.1 532.1 189.1 535C189.8 535.2 191 535 191.2 534 191.3 533 191.2 532 190.2 531.9L182.2 529 188.6 526C189.4 525.5 189.6 524.5 189.5 523.9 189.1 523.3 188.3 522.8 187.7 522.9 187.7 522.9 187.4 522.9 187.4 522.9L178 527.1 167.3 523 188.4 513.4C189.3 512.9 189.5 511.9 189.4 511.3 188.9 510.7 188.2 510.2 187.6 510.3 187.6 510.3 187.3 510.3 187.3 510.3L163.1 521.4 141 513.1 159.3 498.1 185.7 500.8C186.7 501 187.5 500.2 187.4 499.3 187.5 498.3 186.7 497.4 185.8 497.6L162.7 495.2 171.6 487.9 181.8 488.8C182.8 489 183.6 488.2 183.4 487.3 183.6 486.3 182.8 485.4 181.9 485.6L174.9 484.8 181.5 479.5C182.1 479.1 182.2 477.7 181.8 477.2 181.3 476.6 180.7 476.4 180 476.5 179.7 476.5 179.4 476.6 179.1 476.9L172.6 482.3 173.4 475.3C173.5 474.3 172.7 473.5 171.8 473.6 171.8 473.6 171.5 473.7 171.5 473.7 170.8 473.8 170.3 474.5 170.1 475.2L169.2 485.4 160.3 492.7 162.7 469.6C162.8 468.6 162.1 467.8 161.1 467.9 161.1 467.9 160.8 468 160.8 468 160.2 468.1 159.6 468.8 159.4 469.5L156.7 495.9 138.4 510.9 134.5 487.6 150.1 465.9C150.6 465.1 150.4 464.2 149.7 463.7 149 463.1 148 463.3 147.5 464L133.7 482.8 131.8 471.5 137.6 463.4C138.2 462.6 138 461.7 137.3 461.2S135.6 460.8 135.1 461.5L131.1 467.1 129.8 458.8C129.6 457.9 128.9 457.4 127.9 457.5 127 457.7 126.4 458.4 126.6 459.4L128 467.6 122.4 463.6C122.1 463.4 121.7 463.1 121.1 463.2S120.2 463.7 119.9 464C119.4 464.8 119.5 465.7 120.3 466.3L128.4 472.1 130.3 483.4 111.1 469.7C110.8 469.5 110.4 469.2 109.8 469.3 109.4 469.3 108.9 469.8 108.6 470.1 108.1 470.9 108.2 471.8 109 472.3L130.7 487.9 134.5 511.3 112.4 502.9 101.3 478.8C100.9 478.2 100.1 477.7 99.5 477.8 99.5 477.8 99.2 477.9 99.2 477.9 98.3 478.3 98.1 479.3 98.2 480L107.9 501.1 97.2 497 93 487.6C92.6 487.1 91.9 486.5 91.2 486.6 91.2 486.6 90.9 486.7 90.9 486.7 90 487.2 89.9 488.2 90 488.8L92.9 495.1 85 492.2C84.7 492.3 84.3 492 84 492 83.4 492.2 82.8 492.6 82.6 493.3 82.4 494.3 82.6 495.2 83.6 495.4L91.5 498.3 85.2 501.3C84.3 501.7 84.2 502.7 84.3 503.4 84.7 504.3 85.7 504.4 86.4 504.3L95.7 500.2 106.5 504.2 85.4 513.9C84.5 514.4 84.3 515.4 84.4 516 85.5 516.8 86.6 517.2 87.5 516.8Z" fill="rgba(51, 121, 194, 0.58)"></path></g><defs><mask id="SvgjsMask1000"><rect width="1440" height="560" fill="#ffffff"></rect></mask><filter id="SvgjsFilter1001"><feGaussianBlur stdDeviation="1"></feGaussianBlur></filter></defs></svg>